<?xml version="1.0" standalone="no"?>
<!DOCTYPE svg PUBLIC "-//W3C//DTD SVG 20010904//EN"
 "http://www.w3.org/TR/2001/REC-SVG-20010904/DTD/svg10.dtd">
<svg version="1.0" xmlns="http://www.w3.org/2000/svg"
 width="70.000000pt" height="70.000000pt" viewBox="0 0 70.000000 70.000000"
 preserveAspectRatio="xMidYMid meet">
<metadata>
Created by potrace 1.14, written by Peter Selinger 2001-2017
</metadata>
<g transform="translate(0.000000,70.000000) scale(0.100000,-0.100000)"
fill="#000000" stroke="none">
<path d="M460 584 c0 -4 8 -16 17 -26 16 -18 13 -23 -75 -111 l-92 -92 -44 44
c-41 40 -47 43 -63 30 -34 -27 -113 -110 -113 -119 0 -5 9 -14 20 -20 17 -9
26 -4 63 34 l44 44 47 -46 46 -47 113 113 c99 99 115 111 126 98 8 -9 20 -16
28 -16 11 0 13 13 11 58 l-3 57 -62 3 c-35 2 -63 0 -63 -4z"/>
<path d="M488 420 l-38 -39 0 -140 0 -141 40 0 40 0 0 180 c0 99 -1 180 -2
179 -2 0 -20 -18 -40 -39z"/>
<path d="M383 316 c-32 -32 -33 -34 -33 -124 l0 -92 40 0 40 0 0 125 c0 69 -3
125 -7 124 -5 0 -23 -15 -40 -33z"/>
<path d="M178 292 c-33 -36 -34 -41 -32 -107 1 -39 3 -74 3 -78 1 -5 18 -7 38
-5 l38 3 0 113 c1 61 -2 112 -6 112 -4 0 -22 -17 -41 -38z"/>
<path d="M249 242 c0 -34 -1 -79 -1 -99 -1 -38 -1 -38 38 -38 l39 0 1 78 c1
64 -1 77 -14 77 -9 0 -26 10 -39 22 l-23 21 -1 -61z"/>
</g>
</svg>
